<svg id="_x31_px" enable-background="new 0 0 24 24" height="512" viewBox="0 0 24 24" width="512" xmlns="http://www.w3.org/2000/svg"><path d="m22.5 21h-21c-.827 0-1.5-.673-1.5-1.5v-14c0-.827.673-1.5 1.5-1.5h2c.276 0 .5.224.5.5s-.224.5-.5.5h-2c-.276 0-.5.224-.5.5v14c0 .276.224.5.5.5h21c.276 0 .5-.224.5-.5v-14c0-.276-.224-.5-.5-.5h-1.5c-.276 0-.5-.224-.5-.5s.223-.5.5-.5h1.5c.827 0 1.5.673 1.5 1.5v14c0 .827-.673 1.5-1.5 1.5z"/><path d="m15.5 24h-7c-.202 0-.385-.122-.462-.309-.078-.187-.035-.402.108-.545 1.316-1.316 1.333-2.59 1.333-2.644 0-.274.223-.5.497-.501h.003c.273 0 .496.218.5.491 0 .058.003 1.196-.909 2.507h4.857c-.915-1.308-.928-2.442-.928-2.5 0-.276.224-.5.5-.5.275 0 .499.222.5.497.001.063.04 1.336 1.354 2.649.143.143.186.358.108.545-.076.188-.259.31-.461.31zm-1-3.5h.01z"/><path d="m23.5 18h-23c-.276 0-.5-.224-.5-.5s.224-.5.5-.5h23c.276 0 .5.224.5.5s-.224.5-.5.5z"/><path d="m12 5c-.058 0-.116-.01-.171-.03l-5.5-2c-.198-.072-.329-.26-.329-.47s.131-.398.329-.47l5.5-2c.11-.04.231-.04.342 0l5.5 2c.198.072.329.26.329.47s-.131.398-.329.47l-5.5 2c-.055.02-.113.03-.171.03zm-4.037-2.5 4.037 1.468 4.037-1.468-4.037-1.468z"/><path d="m12 12c-.058 0-.116-.01-.171-.03l-5.5-2c-.198-.072-.329-.26-.329-.47v-7c0-.276.224-.5.5-.5s.5.224.5.5v6.65l5 1.818 5-1.818v-6.65c0-.276.224-.5.5-.5s.5.224.5.5v7c0 .21-.131.398-.329.47l-5.5 2c-.055.02-.113.03-.171.03z"/><path d="m12 12c-.276 0-.5-.224-.5-.5v-7c0-.276.224-.5.5-.5s.5.224.5.5v7c0 .276-.224.5-.5.5z"/></svg>