<svg id="Capa_1" enable-background="new 0 0 512 512" height="512" viewBox="0 0 512 512" width="512" xmlns="http://www.w3.org/2000/svg"><path d="m512 202.143v-98.857h-210.76l-34.428-103.286h-159.337l-38.618 115.852v258.434h34.429v19.429c0 10.713-8.716 19.429-19.429 19.429h-34.428c-27.255-.001-49.429 22.172-49.429 49.427v49.429h305.429v-49.429c0-27.255-22.174-49.428-49.429-49.428h-34.429c-10.713 0-19.429-8.716-19.429-19.429v-19.429h25.642l71.329-71.328 75.173-34.195v-52.694l55.702-13.926h82.012zm-30-68.857v38.857h-38.857v-38.857zm-341.952 0c6.367 19.943 25.068 34.429 47.095 34.429s40.728-14.486 47.095-34.429h41.191v142.143h-176.572v-142.143zm27.666-15c0-10.713 8.716-19.429 19.429-19.429s19.429 8.716 19.429 19.429-8.716 19.429-19.429 19.429-19.429-8.716-19.429-19.429zm-38.616-88.286h116.091l24.429 73.286h-35.38c-6.367-19.943-25.068-34.429-47.095-34.429s-40.728 14.486-47.095 34.429h-35.379zm126.902 413.143c10.713 0 19.429 8.715 19.429 19.428v19.429h-245.429v-19.429c0-10.713 8.716-19.428 19.429-19.428zm-79.879-30h-46.813c2.561-5.967 3.979-12.535 3.979-19.429v-19.429h38.856v19.429c0 6.894 1.418 13.462 3.978 19.429zm39.237-68.857h-116.501v-38.857h155.358zm128.928-94.835-38.857 17.676v-33.843l38.857-9.714zm68.857-74.019-107.714 26.928v-69.074h107.714z"/></svg>