<svg id="Capa_1" enable-background="new 0 0 511.989 511.989" height="512" viewBox="0 0 511.989 511.989" width="512" xmlns="http://www.w3.org/2000/svg"><g><path d="m323.11 152.204c-2.924-2.936-7.673-2.944-10.606-.019-2.935 2.923-2.943 7.672-.02 10.606l10.98 11.021c2.924 2.934 7.672 2.941 10.606.019 2.935-2.923 2.943-7.672.02-10.606zm58.02-25.605c2.935-2.923 2.943-7.672.02-10.606l-10.98-11.021c-2.924-2.935-7.673-2.943-10.606-.019-2.935 2.923-2.943 7.672-.02 10.606l10.98 11.021c2.923 2.935 7.671 2.942 10.606.019zm-23.53 23.616c2.935-2.923 2.943-7.672.02-10.606l-10.98-11.021c-2.924-2.936-7.673-2.943-10.606-.019-2.935 2.923-2.943 7.672-.02 10.606l10.98 11.021c2.924 2.934 7.672 2.941 10.606.019zm-190.771 217.45-103.365 103.745c-1.666 1.552-3.374 1.568-5.062-.003l-42.347-42.497c-1.42-1.427-1.423-3.742-.003-5.165l169.163-169.783 4.786 4.804c5.4 5.472 14.622 5.495 20.038 0l83.256-83.562c5.502-5.524 5.501-14.511-.001-20.033l-4.824-4.842 101.705-102.077c1.649-1.509 3.414-1.524 5.052.003l47.844 48.014c.787.792 1.372 1.713 1.746 2.753l9.707 26.847c1.409 3.896 5.709 5.913 9.604 4.503 3.895-1.408 5.911-5.708 4.503-9.603l-9.701-26.831c-1.116-3.108-2.872-5.882-5.227-8.25l-47.848-48.018c-7.118-7.223-19.201-7.211-26.308-.003l-2.778 2.788c-12.24-7.375-25.945-12.377-39.994-14.559-11.28-1.752-22.74-1.729-34.061.064-10.382 1.645-14.693 14.718-7.169 22.133l36.806 36.941-54.469 54.668-66.239-66.482c-7.819-8.029-20.839.174-18.162 10.317l22.644 89.485-45.796 45.964c-5.503 5.523-5.503 14.511 0 20.034l4.299 4.315-169.198 169.819c-7.238 7.254-7.241 19.069-.003 26.341l42.347 42.497c7.077 7.177 19.209 7.22 26.318.003l103.363-103.742c2.923-2.935 2.915-7.684-.02-10.607-2.933-2.924-7.682-2.915-10.606.019zm142.073-327.419c8.523-.999 17.108-.842 25.572.472 10.92 1.695 21.598 5.374 31.335 10.737l-22.87 22.953zm-81.827 143.038c3.502-3.515 4.921-8.688 3.703-13.501l-19.03-75.206 60.791 61.014c.017.017.031.036.047.052.015.015.031.026.045.041l9.468 9.503-82.08 82.382-18.497-18.566zm-41.239 96.033c-2.935 2.923-2.943 7.672-.02 10.606l10.98 11.021c2.924 2.934 7.672 2.941 10.606.019 2.935-2.923 2.943-7.672.02-10.606l-10.98-11.021c-2.923-2.936-7.672-2.945-10.606-.019zm-49.021 92.493c2.935-2.923 2.943-7.672.02-10.606l-10.98-11.021c-2.924-2.936-7.673-2.943-10.606-.019-2.935 2.923-2.943 7.672-.02 10.606l10.98 11.021c2.923 2.935 7.672 2.942 10.606.019zm36.098-68.858c-2.924-2.935-7.673-2.943-10.606-.019-2.935 2.923-2.943 7.672-.02 10.606l10.98 11.021c2.924 2.934 7.672 2.941 10.606.019 2.935-2.923 2.943-7.672.02-10.606zm-83.157 116.092c2.935-2.924 2.943-7.673.02-10.606l-10.98-11.021c-2.924-2.937-7.673-2.944-10.606-.021-2.935 2.924-2.943 7.673-.02 10.606l10.98 11.021c2.923 2.936 7.672 2.944 10.606.021zm421.577-180.173-30.623-84.693c-1.408-3.896-5.708-5.913-9.604-4.503-3.896 1.408-5.911 5.708-4.503 9.603l24.23 67.012-81.31-81.61c-5.566-5.62-14.971-5.611-20.537.01l-53.065 53.265-4.785-4.802c-5.423-5.498-14.619-5.496-20.039-.001l-83.254 83.561c-5.504 5.523-5.504 14.511 0 20.034l4.824 4.842-41.069 41.22c-2.924 2.935-2.915 7.684.02 10.607 2.934 2.923 7.682 2.914 10.606-.02l41.031-41.181 4.26 4.275c2.675 2.686 6.233 4.164 10.02 4.164s7.345-1.479 10.019-4.163l45.777-45.944 89.12 22.716c10.201 2.72 18.004-10.641 10.337-18.16l-66.278-66.521 52.752-52.951 94.216 94.565c3.63 3.643 9.177 4.229 13.471 1.508 4.319-2.741 6.123-8.017 4.384-12.833zm-119.831 36.12-74.944-19.104c-4.822-1.231-9.999.198-13.511 3.725l-45.514 45.681-8.862-8.895c-.041-.042-.077-.089-.119-.131-.036-.036-.077-.067-.114-.103l-9.403-9.438 82.08-82.381 9.484 9.519c.009.009.017.02.027.029.008.008.017.015.025.023zm-231.157 73.205c2.935-2.924 2.943-7.673.02-10.606l-10.98-11.021c-2.923-2.937-7.672-2.945-10.606-.021-2.935 2.924-2.943 7.673-.02 10.606l10.98 11.021c2.922 2.936 7.672 2.944 10.606.021zm-47.059 47.23c2.935-2.923 2.943-7.672.02-10.606l-10.98-11.021c-2.924-2.936-7.673-2.943-10.606-.019-2.935 2.923-2.943 7.672-.02 10.606l10.98 11.021c2.923 2.935 7.671 2.942 10.606.019zm-58.02 25.605c-2.924-2.935-7.673-2.943-10.606-.019-2.935 2.923-2.943 7.672-.02 10.606l10.98 11.021c2.924 2.934 7.672 2.941 10.606.019 2.935-2.923 2.943-7.672.02-10.606z"/></g></svg>